<?xml version="1.0" encoding="UTF-8"?>
<svg id="Layer_1" xmlns="http://www.w3.org/2000/svg" version="1.1" xmlns:xlink="http://www.w3.org/1999/xlink" viewBox="0 0 1000 174.59">
  <!-- Generator: Adobe Illustrator 29.7.1, SVG Export Plug-In . SVG Version: 2.1.1 Build 8)  -->
  <defs>
    <style>
      .st0 {
        fill: url(#linear-gradient2);
      }

      .st1 {
        fill: #07c89e;
      }

      .st2 {
        fill: url(#linear-gradient1);
      }

      .st3 {
        fill: url(#linear-gradient4);
      }

      .st4 {
        fill: #011576;
      }

      .st5 {
        fill: url(#linear-gradient5);
      }

      .st6 {
        fill: url(#linear-gradient3);
      }

      .st7 {
        fill: url(#linear-gradient6);
      }

      .st8 {
        fill: #f8f8f8;
      }

      .st9 {
        fill: url(#linear-gradient);
      }
    </style>
    <linearGradient id="linear-gradient" x1="57.91" y1="96.9" x2="183.16" y2="96.9" gradientUnits="userSpaceOnUse">
      <stop offset="0" stop-color="#03c9a0"/>
      <stop offset="1" stop-color="#0184f7"/>
    </linearGradient>
    <linearGradient id="linear-gradient1" x1="57.91" y1="100.16" x2="183.16" y2="100.16" xlink:href="#linear-gradient"/>
    <linearGradient id="linear-gradient2" x1="57.91" y1="35.85" x2="183.16" y2="35.85" xlink:href="#linear-gradient"/>
    <linearGradient id="linear-gradient3" x1="57.91" y1="25.63" x2="183.16" y2="25.63" xlink:href="#linear-gradient"/>
    <linearGradient id="linear-gradient4" x1="57.91" y1="9.3" x2="183.16" y2="9.3" xlink:href="#linear-gradient"/>
    <linearGradient id="linear-gradient5" x1="57.91" y1="95.22" x2="183.16" y2="95.22" xlink:href="#linear-gradient"/>
    <linearGradient id="linear-gradient6" x1="57.91" y1="79.72" x2="183.16" y2="79.72" xlink:href="#linear-gradient"/>
  </defs>
  <g>
    <g>
      <path class="st4" d="M227.89,149.47V47.57h35.69c30.11,0,50.88,20.77,50.88,51.16s-20.35,50.74-49.9,50.74h-36.66ZM245.73,64.02v69h17.15c20.35,0,32.76-13.1,32.76-34.29s-12.68-34.71-33.73-34.71h-16.17Z"/>
      <path class="st4" d="M324.26,56.49c0-5.71,4.6-10.18,10.46-10.18s10.18,4.46,10.18,10.18-4.6,10.32-10.18,10.32c-5.85,0-10.46-4.6-10.46-10.32ZM326.21,80.61h17.01v68.86h-17.01v-68.86Z"/>
      <path class="st4" d="M369.59,128.56c.14,5.99,4.6,9.76,12.41,9.76s12.27-3.21,12.27-8.22c0-3.49-1.81-5.99-7.94-7.39l-12.41-2.93c-12.41-2.79-18.4-8.64-18.4-19.65,0-13.52,11.43-21.61,27.32-21.61s25.93,8.92,26.07,22.3h-16.17c-.14-5.86-4.04-9.62-10.59-9.62s-10.59,3.07-10.59,8.22c0,3.9,3.07,6.41,8.92,7.81l12.41,2.93c11.57,2.65,17.42,7.95,17.42,18.54,0,13.94-11.85,22.58-28.85,22.58s-28.02-9.2-28.02-22.72h16.17Z"/>
      <path class="st4" d="M421.39,149.47v-68.86h15.61l1.39,8.08c3.49-5.71,10.46-10.18,20.35-10.18,10.46,0,17.7,5.16,21.33,13.1,3.49-7.94,11.57-13.1,22.02-13.1,16.73,0,25.93,10.04,25.93,25.93v45.02h-16.87v-40.56c0-9.9-5.3-15.05-13.38-15.05s-14.5,5.3-14.5,16.59v39.03h-17.01v-40.7c0-9.62-5.16-14.78-13.24-14.78s-14.64,5.3-14.64,16.45v39.03h-17.01Z"/>
      <path class="st4" d="M540.52,56.49c0-5.71,4.6-10.18,10.45-10.18s10.18,4.46,10.18,10.18-4.6,10.32-10.18,10.32c-5.85,0-10.45-4.6-10.45-10.32ZM542.47,80.61h17.01v68.86h-17.01v-68.86Z"/>
      <path class="st4" d="M585.85,128.56c.14,5.99,4.6,9.76,12.41,9.76s12.27-3.21,12.27-8.22c0-3.49-1.81-5.99-7.95-7.39l-12.41-2.93c-12.41-2.79-18.4-8.64-18.4-19.65,0-13.52,11.43-21.61,27.32-21.61s25.93,8.92,26.07,22.3h-16.17c-.14-5.86-4.04-9.62-10.59-9.62s-10.59,3.07-10.59,8.22c0,3.9,3.07,6.41,8.92,7.81l12.41,2.93c11.57,2.65,17.43,7.95,17.43,18.54,0,13.94-11.85,22.58-28.86,22.58s-28.02-9.2-28.02-22.72h16.17Z"/>
      <path class="st4" d="M649.46,128.56c.14,5.99,4.6,9.76,12.41,9.76s12.27-3.21,12.27-8.22c0-3.49-1.81-5.99-7.95-7.39l-12.41-2.93c-12.41-2.79-18.4-8.64-18.4-19.65,0-13.52,11.43-21.61,27.32-21.61s25.93,8.92,26.07,22.3h-16.17c-.14-5.86-4.04-9.62-10.59-9.62s-10.59,3.07-10.59,8.22c0,3.9,3.07,6.41,8.92,7.81l12.41,2.93c11.57,2.65,17.43,7.95,17.43,18.54,0,13.94-11.85,22.58-28.86,22.58s-28.02-9.2-28.02-22.72h16.17Z"/>
      <path class="st4" d="M698.22,129.81c0-12.68,9.2-20.63,25.51-21.88l20.63-1.53v-1.53c0-9.34-5.58-13.1-14.22-13.1-10.04,0-15.61,4.18-15.61,11.43h-14.5c0-14.91,12.27-24.67,30.95-24.67s29.97,10.04,29.97,29.13v41.82h-14.92l-1.25-10.18c-2.93,7.11-12.27,11.99-23,11.99-14.64,0-23.56-8.5-23.56-21.47ZM744.5,121.59v-3.62l-14.36,1.11c-10.59.98-14.64,4.46-14.64,10.04,0,6.27,4.18,9.34,11.85,9.34,10.46,0,17.15-6.27,17.15-16.87Z"/>
      <path class="st4" d="M775.49,149.47V45.76h16.87v103.71h-16.87Z"/>
      <path class="st1" d="M819.75,112.81v36.66h-10.04V49.66h38.05c19.24,0,31.36,12.55,31.36,31.37s-12.27,31.78-31.36,31.78h-28.02ZM819.75,58.72v45.02h26.07c14.5,0,22.86-9.2,22.86-22.86s-8.5-22.16-22.3-22.16h-26.62Z"/>
      <path class="st1" d="M924.49,89.81h-5.3c-12.41,0-20.35,8.36-20.35,21.19v38.47h-9.62v-67.47h9.06l.7,10.45c2.65-7.25,9.76-11.99,19.24-11.99,2.09,0,3.9.14,6.27.7v8.64Z"/>
      <path class="st1" d="M960.93,80.19c19.8,0,34.29,14.91,34.29,35.54s-14.5,35.41-34.29,35.41-34.29-14.92-34.29-35.41,14.5-35.54,34.29-35.54ZM960.93,142.5c14.36,0,24.53-11.01,24.53-26.9s-10.18-26.76-24.53-26.76-24.53,11.15-24.53,26.76,10.04,26.9,24.53,26.9Z"/>
    </g>
    <g>
      <g>
        <path class="st9" d="M166.54,100.15c0,14.46-7.5,27.2-18.83,34.48l-22.16-34.48v-40.99c22.64,0,40.99,18.38,40.99,40.99Z"/>
        <path class="st2" d="M133.25,27.73c-2.53-.29-5.1-.42-7.7-.42s-5.2.13-7.73.42c-12.89,1.35-24.79,6.06-34.76,13.25-7.86,5.64-14.56,12.83-19.63,21.1.19.67.29,1.38.29,2.12,0,3.4-2.15,6.25-5.19,7.31-3.24,7.57-5.23,15.78-5.71,24.41v.19c-.1,1.35-.13,2.69-.13,4.04,0,19.05,7.28,36.37,19.21,49.32,13.34,14.46,32.42,23.54,53.65,23.54,40.22,0,72.83-32.62,72.83-72.86,0-37.62-28.54-68.57-65.13-72.41ZM125.55,156.49c-15.87,0-30.21-6.57-40.44-17.16-9.85-10.13-15.91-23.96-15.91-39.19s6.06-29.06,15.91-39.19c10.23-10.55,24.57-17.13,40.44-17.13,31.11,0,56.32,25.21,56.32,56.32s-25.21,56.35-56.32,56.35Z"/>
        <path class="st0" d="M207.04,46.15l-11.32,8.53c-7.31-11.29-17.29-20.72-29.06-27.32l10.39-10.33c11.99,7.44,22.22,17.38,29.99,29.12Z"/>
        <rect class="st6" x="117.82" y="17.03" width="15.44" height="17.21"/>
        <rect class="st3" x="105.03" y="1.58" width="41.02" height="15.44"/>
      </g>
      <path class="st5" d="M85.11,60.95c-9.85,10.13-15.91,23.96-15.91,39.19s6.06,29.06,15.91,39.19v10.13h-51.02c-4.3,0-7.76-3.46-7.76-7.73v-.03c0-4.27,3.46-7.73,7.76-7.73h9.94c4.3,0,7.76-3.46,7.76-7.73v-.06c0-4.27-3.46-7.73-7.76-7.73H12.54c-4.3,0-7.76-3.46-7.76-7.76,0-2.15.87-4.07,2.28-5.45,1.38-1.41,3.34-2.28,5.48-2.28h32.58c3.98,0,7.25-3.01,7.7-6.86v-.19c.03-.22.03-.45.03-.67v-.03c0-4.27-3.46-7.73-7.73-7.73h-5.32c-4.3,0-7.76-3.46-7.76-7.73v-.06c0-4.27,3.46-7.73,7.76-7.73h16.16c.9,0,1.76-.16,2.57-.45,3.05-1.06,5.19-3.91,5.19-7.31,0-.74-.1-1.44-.29-2.12-.35-1.28-1.06-2.44-1.99-3.34-1.38-1.41-3.34-2.28-5.48-2.28H21.84c-4.27,0-7.73-3.46-7.73-7.73v-.03c0-4.27,3.46-7.73,7.73-7.73h63.27v19.98Z"/>
      <path class="st7" d="M18.86,87.48h0c-4.29,0-7.76-3.47-7.76-7.76h0c0-4.29,3.47-7.76,7.76-7.76s7.76,3.47,7.76,7.76h0c0,4.29-3.47,7.76-7.76,7.76Z"/>
    </g>
  </g>
</svg>