<?xml version="1.0" encoding="UTF-8"?>
<svg id="Layer_1" xmlns="http://www.w3.org/2000/svg" version="1.1" xmlns:xlink="http://www.w3.org/1999/xlink" viewBox="0 0 207.04 174.59">
  <!-- Generator: Adobe Illustrator 29.7.1, SVG Export Plug-In . SVG Version: 2.1.1 Build 8)  -->
  <defs>
    <style>
      .st0 {
        fill: url(#linear-gradient2);
      }

      .st1 {
        fill: url(#linear-gradient1);
      }

      .st2 {
        fill: url(#linear-gradient4);
      }

      .st3 {
        fill: url(#linear-gradient5);
      }

      .st4 {
        fill: url(#linear-gradient3);
      }

      .st5 {
        fill: url(#linear-gradient6);
      }

      .st6 {
        fill: #f8f8f8;
      }

      .st7 {
        fill: url(#linear-gradient);
      }
    </style>
    <linearGradient id="linear-gradient" x1="55.52" y1="96.9" x2="180.77" y2="96.9" gradientUnits="userSpaceOnUse">
      <stop offset="0" stop-color="#03c9a0"/>
      <stop offset="1" stop-color="#0184f7"/>
    </linearGradient>
    <linearGradient id="linear-gradient1" x1="55.52" y1="100.16" x2="180.77" y2="100.16" xlink:href="#linear-gradient"/>
    <linearGradient id="linear-gradient2" x1="55.52" y1="35.85" x2="180.77" y2="35.85" xlink:href="#linear-gradient"/>
    <linearGradient id="linear-gradient3" x1="55.52" y1="25.63" x2="180.77" y2="25.63" xlink:href="#linear-gradient"/>
    <linearGradient id="linear-gradient4" x1="55.52" y1="9.3" x2="180.77" y2="9.3" xlink:href="#linear-gradient"/>
    <linearGradient id="linear-gradient5" y1="95.22" x2="180.77" y2="95.22" xlink:href="#linear-gradient"/>
    <linearGradient id="linear-gradient6" y1="79.72" x2="180.77" y2="79.72" xlink:href="#linear-gradient"/>
  </defs>
  <g>
    <g>
      <path class="st7" d="M164.15,100.15c0,14.46-7.5,27.2-18.83,34.48l-22.16-34.48v-40.99c22.64,0,40.99,18.38,40.99,40.99Z"/>
      <path class="st1" d="M130.86,27.73c-2.53-.29-5.1-.42-7.7-.42s-5.2.13-7.73.42c-12.89,1.35-24.79,6.06-34.76,13.25-7.86,5.64-14.56,12.83-19.63,21.1.19.67.29,1.38.29,2.12,0,3.4-2.15,6.25-5.19,7.31-3.24,7.57-5.23,15.78-5.71,24.41v.19c-.1,1.35-.13,2.69-.13,4.04,0,19.05,7.28,36.37,19.21,49.32,13.34,14.46,32.42,23.54,53.65,23.54,40.22,0,72.83-32.62,72.83-72.86,0-37.62-28.54-68.57-65.13-72.41ZM123.17,156.49c-15.87,0-30.21-6.57-40.44-17.16-9.85-10.13-15.91-23.96-15.91-39.19s6.06-29.06,15.91-39.19c10.23-10.55,24.57-17.13,40.44-17.13,31.11,0,56.32,25.21,56.32,56.32s-25.21,56.35-56.32,56.35Z"/>
      <path class="st0" d="M204.65,46.15l-11.32,8.53c-7.31-11.29-17.29-20.72-29.06-27.32l10.39-10.33c11.99,7.44,22.22,17.38,29.99,29.12Z"/>
      <rect class="st4" x="115.43" y="17.03" width="15.44" height="17.21"/>
      <rect class="st2" x="102.64" y="1.58" width="41.02" height="15.44"/>
    </g>
    <path class="st3" d="M82.72,60.95c-9.85,10.13-15.91,23.96-15.91,39.19s6.06,29.06,15.91,39.19v10.13H31.7c-4.3,0-7.76-3.46-7.76-7.73v-.03c0-4.27,3.46-7.73,7.76-7.73h9.94c4.3,0,7.76-3.46,7.76-7.73v-.06c0-4.27-3.46-7.73-7.76-7.73H10.15c-4.3,0-7.76-3.46-7.76-7.76,0-2.15.87-4.07,2.28-5.45,1.38-1.41,3.34-2.28,5.48-2.28h32.58c3.98,0,7.25-3.01,7.7-6.86v-.19c.03-.22.03-.45.03-.67v-.03c0-4.27-3.46-7.73-7.73-7.73h-5.32c-4.3,0-7.76-3.46-7.76-7.73v-.06c0-4.27,3.46-7.73,7.76-7.73h16.16c.9,0,1.76-.16,2.57-.45,3.05-1.06,5.19-3.91,5.19-7.31,0-.74-.1-1.44-.29-2.12-.35-1.28-1.06-2.44-1.99-3.34-1.38-1.41-3.34-2.28-5.48-2.28H19.45c-4.27,0-7.73-3.46-7.73-7.73v-.03c0-4.27,3.46-7.73,7.73-7.73h63.27v19.98Z"/>
    <path class="st5" d="M16.47,87.48h0c-4.29,0-7.76-3.47-7.76-7.76h0c0-4.29,3.47-7.76,7.76-7.76s7.76,3.47,7.76,7.76h0c0,4.29-3.47,7.76-7.76,7.76Z"/>
  </g>
</svg>